<svg width="1476" height="1188" viewBox="0 0 1476 1188" fill="none" xmlns="http://www.w3.org/2000/svg">
<path d="M0 1.99997C0 0.895397 0.895431 0 2 0H1474C1475.1 0 1476 0.89543 1476 2V1186C1476 1187.1 1475.1 1188 1474 1188H1.99997C0.895399 1188 0 1187.1 0 1186V1.99997Z" fill="#404040"/>
<path d="M2 1H1474V-1H2V1ZM1475 2V1186H1477V2H1475ZM1474 1187H1.99997V1189H1474V1187ZM1 1186V1.99997H-1V1186H1ZM1.99997 1187C1.4477 1187 1 1186.55 1 1186H-1C-1 1187.66 0.343094 1189 1.99997 1189V1187ZM1475 1186C1475 1186.55 1474.55 1187 1474 1187V1189C1475.66 1189 1477 1187.66 1477 1186H1475ZM1474 1C1474.55 1 1475 1.44769 1475 2H1477C1477 0.343166 1475.66 -1 1474 -1V1ZM2 -1C0.343168 -1 -1 0.343091 -1 1.99997H1C1 1.4477 1.44769 1 2 1V-1Z" fill="white" fill-opacity="0.1"/>
<rect x="168" y="444" width="240" height="636" fill="#D9D9D9"/>
<rect x="536" y="228" width="260" height="852" fill="#D9D9D9"/>
<rect x="940" y="654" width="244" height="426" fill="#D9D9D9"/>
<rect x="3" y="3" width="59.3833" height="30" rx="3" fill="#404040"/>
<rect x="3.5" y="3.5" width="58.3833" height="29" rx="2.5" stroke="black" stroke-opacity="0.14902"/>
<path d="M14.3438 15C14.2969 14.6042 14.1068 14.2969 13.7734 14.0781C13.4401 13.8594 13.0313 13.75 12.5469 13.75C12.1927 13.75 11.8828 13.8073 11.6172 13.9219C11.3542 14.0365 11.1484 14.194 11 14.3945C10.8542 14.5951 10.7813 14.8229 10.7813 15.0781C10.7813 15.2917 10.832 15.4753 10.9336 15.6289C11.0378 15.7799 11.1706 15.9062 11.332 16.0078C11.4935 16.1068 11.6628 16.1888 11.8398 16.2539C12.0169 16.3164 12.1797 16.3672 12.3281 16.4062L13.1406 16.625C13.349 16.6797 13.5807 16.7552 13.8359 16.8516C14.0938 16.9479 14.3398 17.0794 14.5742 17.2461C14.8112 17.4102 15.0065 17.6211 15.1602 17.8789C15.3138 18.1367 15.3906 18.4531 15.3906 18.8281C15.3906 19.2604 15.2773 19.651 15.0508 20C14.8268 20.349 14.4987 20.6263 14.0664 20.832C13.6367 21.0378 13.1146 21.1406 12.5 21.1406C11.9271 21.1406 11.431 21.0482 11.0117 20.8633C10.5951 20.6784 10.2669 20.4206 10.0273 20.0898C9.79036 19.7591 9.65625 19.375 9.625 18.9375H10.625C10.651 19.2396 10.7526 19.4896 10.9297 19.6875C11.1094 19.8828 11.3359 20.0286 11.6094 20.125C11.8854 20.2187 12.1823 20.2656 12.5 20.2656C12.8698 20.2656 13.2018 20.2057 13.4961 20.0859C13.7904 19.9635 14.0234 19.7943 14.1953 19.5781C14.3672 19.3594 14.4531 19.1042 14.4531 18.8125C14.4531 18.5469 14.3789 18.3307 14.2305 18.1641C14.082 17.9974 13.8867 17.862 13.6445 17.7578C13.4023 17.6536 13.1406 17.5625 12.8594 17.4844L11.875 17.2031C11.25 17.0234 10.7552 16.7669 10.3906 16.4336C10.026 16.1003 9.84375 15.6641 9.84375 15.125C9.84375 14.6771 9.96484 14.2865 10.207 13.9531C10.4518 13.6172 10.7799 13.3568 11.1914 13.1719C11.6055 12.9844 12.0677 12.8906 12.5781 12.8906C13.0938 12.8906 13.5521 12.9831 13.9531 13.168C14.3542 13.3503 14.6719 13.6003 14.9062 13.918C15.1432 14.2357 15.2682 14.5964 15.2813 15H14.3438ZM19.374 21.125C18.7959 21.125 18.2972 20.9974 17.8779 20.7422C17.4613 20.4844 17.1396 20.125 16.9131 19.6641C16.6891 19.2005 16.5771 18.6615 16.5771 18.0469C16.5771 17.4323 16.6891 16.8906 16.9131 16.4219C17.1396 15.9505 17.4548 15.5833 17.8584 15.3203C18.2646 15.0547 18.7386 14.9219 19.2803 14.9219C19.5928 14.9219 19.9014 14.974 20.2061 15.0781C20.5107 15.1823 20.7881 15.3516 21.0381 15.5859C21.2881 15.8177 21.4873 16.125 21.6357 16.5078C21.7842 16.8906 21.8584 17.362 21.8584 17.9219V18.3125H17.2334V17.5156H20.9209C20.9209 17.1771 20.8532 16.875 20.7178 16.6094C20.585 16.3437 20.3949 16.1341 20.1475 15.9805C19.9027 15.8268 19.6136 15.75 19.2803 15.75C18.9131 15.75 18.5954 15.8411 18.3271 16.0234C18.0615 16.2031 17.8571 16.4375 17.7139 16.7266C17.5706 17.0156 17.499 17.3255 17.499 17.6562V18.1875C17.499 18.6406 17.5771 19.0247 17.7334 19.3398C17.8923 19.6523 18.1123 19.8906 18.3936 20.0547C18.6748 20.2161 19.0016 20.2969 19.374 20.2969C19.6162 20.2969 19.835 20.263 20.0303 20.1953C20.2282 20.125 20.3988 20.0208 20.542 19.8828C20.6852 19.7422 20.7959 19.5677 20.874 19.3594L21.7646 19.6094C21.6709 19.9115 21.5133 20.1771 21.292 20.4062C21.0706 20.6328 20.7972 20.8099 20.4717 20.9375C20.1462 21.0625 19.7803 21.125 19.374 21.125ZM25.6982 21.125C25.1357 21.125 24.6514 20.9922 24.2451 20.7266C23.8389 20.4609 23.5264 20.0951 23.3076 19.6289C23.0889 19.1628 22.9795 18.6302 22.9795 18.0312C22.9795 17.4219 23.0915 16.8841 23.3154 16.418C23.542 15.9492 23.8571 15.5833 24.2607 15.3203C24.667 15.0547 25.141 14.9219 25.6826 14.9219C26.1045 14.9219 26.4847 15 26.8232 15.1562C27.1618 15.3125 27.4391 15.5312 27.6553 15.8125C27.8714 16.0937 28.0055 16.4219 28.0576 16.7969H27.1357C27.0654 16.5234 26.9092 16.2812 26.667 16.0703C26.4274 15.8568 26.1045 15.75 25.6982 15.75C25.3389 15.75 25.0238 15.8437 24.7529 16.0312C24.4847 16.2161 24.2751 16.4779 24.124 16.8164C23.9756 17.1523 23.9014 17.5469 23.9014 18C23.9014 18.4635 23.9743 18.8672 24.1201 19.2109C24.2686 19.5547 24.4769 19.8216 24.7451 20.0117C25.016 20.2018 25.3337 20.2969 25.6982 20.2969C25.9378 20.2969 26.1553 20.2552 26.3506 20.1719C26.5459 20.0885 26.7113 19.9688 26.8467 19.8125C26.9821 19.6562 27.0785 19.4687 27.1357 19.25H28.0576C28.0055 19.6042 27.8766 19.9232 27.6709 20.207C27.4678 20.4883 27.1982 20.7122 26.8623 20.8789C26.529 21.043 26.141 21.125 25.6982 21.125ZM32.0146 15V15.7812H28.9053V15H32.0146ZM29.8115 13.5625H30.7334V19.2812C30.7334 19.5417 30.7712 19.737 30.8467 19.8672C30.9248 19.9948 31.0238 20.0807 31.1436 20.125C31.266 20.1667 31.3949 20.1875 31.5303 20.1875C31.6318 20.1875 31.7152 20.1823 31.7803 20.1719C31.8454 20.1589 31.8975 20.1484 31.9365 20.1406L32.124 20.9687C32.0615 20.9922 31.9743 21.0156 31.8623 21.0391C31.7503 21.0651 31.6084 21.0781 31.4365 21.0781C31.1761 21.0781 30.9209 21.0221 30.6709 20.9102C30.4235 20.7982 30.2178 20.6276 30.0537 20.3984C29.8923 20.1693 29.8115 19.8802 29.8115 19.5312V13.5625ZM33.4014 21V15H34.3232V21H33.4014ZM33.8701 14C33.6904 14 33.5355 13.9388 33.4053 13.8164C33.2777 13.694 33.2139 13.5469 33.2139 13.375C33.2139 13.2031 33.2777 13.056 33.4053 12.9336C33.5355 12.8112 33.6904 12.75 33.8701 12.75C34.0498 12.75 34.2035 12.8112 34.3311 12.9336C34.4613 13.056 34.5264 13.2031 34.5264 13.375C34.5264 13.5469 34.4613 13.694 34.3311 13.8164C34.2035 13.9388 34.0498 14 33.8701 14ZM38.4492 21.125C37.9076 21.125 37.4323 20.9961 37.0234 20.7383C36.6172 20.4805 36.2995 20.1198 36.0703 19.6562C35.8438 19.1927 35.7305 18.651 35.7305 18.0312C35.7305 17.4062 35.8438 16.8607 36.0703 16.3945C36.2995 15.9284 36.6172 15.5664 37.0234 15.3086C37.4323 15.0508 37.9076 14.9219 38.4492 14.9219C38.9909 14.9219 39.4648 15.0508 39.8711 15.3086C40.2799 15.5664 40.5977 15.9284 40.8242 16.3945C41.0534 16.8607 41.168 17.4062 41.168 18.0312C41.168 18.651 41.0534 19.1927 40.8242 19.6562C40.5977 20.1198 40.2799 20.4805 39.8711 20.7383C39.4648 20.9961 38.9909 21.125 38.4492 21.125ZM38.4492 20.2969C38.8607 20.2969 39.1992 20.1914 39.4648 19.9805C39.7305 19.7695 39.9271 19.4922 40.0547 19.1484C40.1823 18.8047 40.2461 18.4323 40.2461 18.0312C40.2461 17.6302 40.1823 17.2565 40.0547 16.9102C39.9271 16.5638 39.7305 16.2839 39.4648 16.0703C39.1992 15.8568 38.8607 15.75 38.4492 15.75C38.0378 15.75 37.6992 15.8568 37.4336 16.0703C37.168 16.2839 36.9714 16.5638 36.8438 16.9102C36.7161 17.2565 36.6523 17.6302 36.6523 18.0312C36.6523 18.4323 36.7161 18.8047 36.8438 19.1484C36.9714 19.4922 37.168 19.7695 37.4336 19.9805C37.6992 20.1914 38.0378 20.2969 38.4492 20.2969ZM43.4971 17.3906V21H42.5752V15H43.4658V15.9375H43.5439C43.6846 15.6328 43.8981 15.388 44.1846 15.2031C44.471 15.0156 44.8408 14.9219 45.2939 14.9219C45.7002 14.9219 46.0557 15.0052 46.3604 15.1719C46.665 15.3359 46.902 15.5859 47.0713 15.9219C47.2406 16.2552 47.3252 16.6771 47.3252 17.1875V21H46.4033V17.25C46.4033 16.7786 46.2809 16.4115 46.0361 16.1484C45.7913 15.8828 45.4554 15.75 45.0283 15.75C44.734 15.75 44.471 15.8138 44.2393 15.9414C44.0101 16.069 43.8291 16.2552 43.6963 16.5C43.5635 16.7448 43.4971 17.0417 43.4971 17.3906ZM54.9004 13V21H53.9316V14.0156H53.8848L51.9316 15.3125V14.3281L53.9316 13H54.9004Z" fill="white"/>
</svg>
